<?xml version="1.0" encoding="utf-8"?>
<!-- Generator: Adobe Illustrator 24.1.3, SVG Export Plug-In . SVG Version: 6.00 Build 0)  -->
<svg version="1.1" id="Слой_1" xmlns="http://www.w3.org/2000/svg" xmlns:xlink="http://www.w3.org/1999/xlink" x="0px" y="0px"
	 viewBox="0 0 93.2 40" style="enable-background:new 0 0 93.2 40;" xml:space="preserve">
<style type="text/css">
	.st0{display:none;fill:#4F4F4F;}
	.st1{fill:#FFFFFF;}
</style>
<rect x="-388.6" y="-231.5" class="st0" width="965.1" height="500"/>
<g>
	<path class="st1" d="M19.4,39.3c-0.7,0.3-1.3,0.5-1.9,0.7c-0.1,0-0.3,0-0.4,0c-0.5-0.3-1.1-0.5-1.6-0.8c-0.1-0.1-0.2-0.3-0.2-0.5
		c0-2.8,0-5.6,0-8.4c0-8.5,0-17.1,0-25.6c0-0.5-0.2-0.6-0.6-0.5c-2.4,0.3-4.7,0.6-7.1,1C5.8,5.5,3.8,6.1,1.9,6.5c-0.1,0-0.1,0-0.2,0
		c0-0.5,0-1,0-1.5c0-0.6,0-1.2,0-1.8c0-0.3,0.1-0.4,0.4-0.5c2.1-0.9,4.3-1.4,6.5-1.8c4.3-0.8,8.6-1,12.9-0.6c3.8,0.3,7.4,1,11,2.3
		C32.9,2.7,33,2.9,33,3.4c0,1,0,2.1,0,3.2c-0.7-0.2-1.3-0.3-2-0.5c-3-0.7-6-1.3-9.1-1.7c-0.7-0.1-1.3-0.1-2-0.1
		c-0.4,0-0.5,0.1-0.5,0.5c0,4.1-0.1,8.1-0.1,12.2c0,7.4,0,14.7,0,22.1C19.4,39.1,19.4,39.2,19.4,39.3z"/>
	<path class="st1" d="M13.2,6.4c0,1.4,0,2.7,0,4.1c-1.1,0.1-2.2,0.2-3.3,0.3C8.4,11,7,11.3,5.5,11.5c-0.1,0-0.4,0.3-0.4,0.4
		c-0.2,1.5-0.4,3-0.6,4.5c-0.1,1.1-0.3,2.2-0.4,3.3c-0.4,4,0.8,7.4,3.6,10.2c1.5,1.5,3.2,2.6,5.1,3.4c0.3,0.1,0.4,0.3,0.4,0.6
		c0,1.4,0,2.7,0,4.1c-0.1,0-0.2,0-0.2,0c-2.7-1.4-5.3-2.7-7.6-4.7c-2.5-2.1-4.2-4.7-5-7.9c-0.5-2.1-0.6-4.2-0.3-6.3
		c0.4-3.1,0.7-6.3,1.1-9.4c0-0.1,0.1-0.2,0.1-0.4C1.1,8.5,1.6,8.2,2.4,8c2.4-0.6,4.9-1,7.3-1.3C10.8,6.6,12,6.5,13.2,6.4z"/>
	<path class="st1" d="M21.6,38c0-1.5,0-2.9,0-4.4c0-0.1,0.2-0.3,0.4-0.4c2.5-1.1,4.7-2.7,6.4-4.9c1.9-2.5,2.6-5.2,2.3-8.3
		c-0.3-2.7-0.7-5.4-1-8.2c0-0.3-0.2-0.5-0.5-0.5c-2.4-0.3-4.8-0.6-7.2-1c-0.1,0-0.4-0.2-0.4-0.2c0-1.3,0-2.5,0-3.9
		c1.2,0.1,2.3,0.2,3.4,0.4c2.5,0.3,4.9,0.7,7.3,1.3c1.1,0.3,1.1,0.3,1.3,1.5c0.4,3.6,0.9,7.1,1.2,10.7c0.5,5.7-1.7,10.4-6.3,13.9
		c-1.8,1.4-3.9,2.5-5.9,3.5C22.3,37.7,22,37.8,21.6,38z"/>
	<path class="st1" d="M58,20.5c0,1.2,0.8,1.9,2.2,2c1.3,0.1,2.4-0.2,3.6-1c0,0.8,0,1.4,0,2c0,0.1-0.2,0.2-0.3,0.3
		c-1.9,0.7-3.8,0.8-5.7,0.1c-1.5-0.6-2.3-1.7-2.4-3.2c-0.1-1,0-2,0.5-2.9c1.1-1.7,2.8-2.1,4.7-1.9c2.7,0.3,3.4,2.1,3.3,4.3
		c0,0.5-0.4,0.4-0.6,0.4c-1.6,0-3.2,0-4.8,0C58.4,20.5,58.2,20.5,58,20.5z M58.1,18.9c1.1,0,2.2,0,3.3,0c0-1.1-0.5-1.7-1.7-1.7
		C58.7,17.3,58,18,58.1,18.9z"/>
	<path class="st1" d="M77.1,20.4c0,1.3,0.8,2,2.2,2c1.3,0.1,2.4-0.3,3.6-1c0,0.7,0,1.3,0,1.9c0,0.1-0.2,0.3-0.4,0.3
		c-1.8,0.6-3.6,0.7-5.4,0.1c-2.8-0.9-3.1-3.9-2.2-5.9c0.8-1.7,2.8-2.6,4.9-2.4c2.7,0.3,3.4,1.9,3.4,4.3c0,0.5-0.3,0.4-0.6,0.4
		c-1.5,0-3,0-4.5,0C77.7,20.4,77.4,20.4,77.1,20.4z M80.5,19c0-1.2-0.6-1.7-1.8-1.7C77.6,17.4,77,18,77.1,19
		C78.2,19,79.3,19,80.5,19z"/>
	<path class="st1" d="M85.9,27.1c0.4-0.9,0.8-1.8,1.1-2.6c0.1-0.3,0.1-0.6,0-0.9c-0.9-2.3-1.8-4.6-2.7-7c-0.1-0.2-0.1-0.4-0.2-0.7
		c0.8,0,1.6,0,2.3,0c0.2,0,0.4,0.3,0.5,0.5c0.5,1.3,1,2.6,1.5,3.9c0.1,0.2,0.2,0.4,0.3,0.8c0.1-0.3,0.2-0.5,0.3-0.7
		c0.5-1.4,1-2.8,1.4-4.1c0.1-0.3,0.2-0.4,0.6-0.4c0.7,0,1.4,0,2.1,0C93,16.1,93,16.3,93,16.4c-1.4,3.4-2.8,6.7-4.1,10.1
		c-0.2,0.4-0.4,0.6-0.9,0.6C87.4,27.1,86.7,27.1,85.9,27.1z"/>
	<path class="st1" d="M44.8,13.1c3.2,0,6.3,0,9.5,0c0,0.6,0,1.3,0,2c-0.9,0-1.7,0-2.5,0c-0.9,0-0.9,0-0.9,0.9c0,2.4,0,4.9,0,7.3
		c0,0.6-0.2,0.8-0.8,0.8c-0.4,0-0.9,0-1.4,0s-0.6-0.2-0.6-0.6c0-2.5,0-5,0-7.5c0-0.6-0.2-0.9-0.8-0.8c-0.7,0.1-1.4,0-2.1,0
		c-0.3,0-0.5-0.1-0.5-0.4C44.9,14.1,44.8,13.7,44.8,13.1z"/>
	<path class="st1" d="M65.5,21.6c0.9,0.3,1.7,0.7,2.6,1c0.5,0.1,1.1,0.1,1.6,0c0.4,0,0.9-0.2,0.8-0.7c-0.1-0.3-0.4-0.5-0.7-0.6
		c-0.5-0.2-1-0.2-1.4-0.3c-0.4-0.1-0.8-0.2-1.1-0.3c-1-0.3-1.5-1-1.6-2c-0.1-0.9,0.4-1.7,1.1-2.2c1.2-0.7,2.5-0.9,3.8-0.7
		c0.2,0,0.3,0,0.5,0.1c2.1,0.4,1.8,0.2,1.7,2.4c-0.3-0.2-0.6-0.3-0.9-0.4c-1-0.6-2-0.8-3-0.5c-0.3,0.1-0.5,0.5-0.7,0.7
		c0.2,0.2,0.4,0.5,0.7,0.6c0.8,0.2,1.6,0.3,2.4,0.5c1.2,0.3,1.8,1,1.9,2.1c0.1,0.9-0.5,1.9-1.5,2.4c-1.9,0.9-3.9,0.7-5.8,0
		c-0.1,0-0.3-0.3-0.3-0.5C65.5,22.7,65.5,22.1,65.5,21.6z"/>
</g>
<image style="overflow:visible;enable-background:new    ;" width="1259" height="1280" xlink:href="лого.jpg"  transform="matrix(0.75 0 0 0.75 -1392.1517 -476.3298)">
</image>
</svg>
